<?xml version="1.0" encoding="utf-8"?>
<!-- Generator: Adobe Illustrator 21.0.0, SVG Export Plug-In . SVG Version: 6.00 Build 0)  -->
<svg version="1.1" id="Capa_1" xmlns="http://www.w3.org/2000/svg" xmlns:xlink="http://www.w3.org/1999/xlink" x="0px" y="0px"
	 viewBox="0 0 203.7 151.7" style="enable-background:new 0 0 203.7 151.7;" xml:space="preserve">
<style type="text/css">
	.st0{fill:#FFFFFF;}
</style>
<g>
	<polygon class="st0" points="41.7,96 80,96 58.2,41.7 	"/>
	<path class="st0" d="M-2.4-1.8v155.2H206V-1.8H-2.4z M125.7,138.6c-6.5,0-12.1-1-16.7-3s-8.6-4.7-12-8.3c-3.4-3.6-6.3-7.9-8.8-13
		c-2.5-5-5-10.6-7.5-16.9H41.2l-9.3,32.7c-0.1,0.3-0.2,0.7-0.2,1.1s0,0.8,0,1.1c0,1.3,0.3,2.5,1,3.3c0.7,0.9,1.9,1.3,3.6,1.3h9.5
		v1.4H8.6V137h10.2c2.3,0,4.5-0.7,6.6-2.3c2.3-1.5,3.7-3.5,4.4-5.9l27.3-90.2c-1.3-2.3-2.9-4.8-4.6-7.6c-1.7-2.8-3.6-5.4-5.6-7.8
		s-4.1-4.4-6.2-5.9c-2.1-1.6-4.2-2.5-6.2-2.5v-1.4h32.3c4.4,0,8.3,0.8,11.7,2.5c3.4,1.6,6.3,3.7,8.9,6c2.6,2.5,4.7,5.1,6.5,8.1
		c1.7,3,3.2,5.7,4.3,8.4c1.7,4.3,3.7,9,5.8,14.1c2,5.1,4.3,10.4,6.6,16c2.4,5.5,4.7,11.1,7.1,16.7c2.4,5.6,4.6,10.9,6.8,16.1
		c5.1,12.2,10.3,24.5,15.8,37.1h-14.5V138.6z M194.4,138.5h-50c0-0.5,0-0.9,0-1.4h1.2c3.4,0,6.8-0.2,10.2-0.6s6.9-1.2,10.1-2.5
		c3.3-1.2,6.3-2.9,9.3-5c3-2.1,5.5-4.9,8-8.4c2.3-3.4,4.1-6.8,5.4-10.3c1.3-3.6,2.4-7.1,3-10.3c0.6-3.4,1-6.4,1.1-9.4
		c0.2-3,0.3-5.4,0.3-7.6h1.4v55.5H194.4z"/>
</g>
</svg>
