<?xml version="1.0" encoding="utf-8"?>
<!-- Generator: Adobe Illustrator 21.0.0, SVG Export Plug-In . SVG Version: 6.00 Build 0)  -->
<svg version="1.1" id="Capa_1" xmlns="http://www.w3.org/2000/svg" xmlns:xlink="http://www.w3.org/1999/xlink" x="0px" y="0px"
	 viewBox="0 0 203.7 151.7" style="enable-background:new 0 0 203.7 151.7;" xml:space="preserve">
<style type="text/css">
	.st0{fill:#FFFFFF;}
</style>
<g>
	<polygon class="st0" points="43.1,95.6 80.5,95.6 59.2,42.5 	"/>
	<path class="st0" d="M0,0v151.7h203.7V0H0z M125.2,137.2c-6.4,0-11.8-1-16.3-2.9c-4.5-1.9-8.4-4.6-11.7-8.1
		c-3.3-3.5-6.2-7.7-8.6-12.7c-2.4-4.9-4.9-10.4-7.3-16.5H42.6l-9.1,32c-0.1,0.3-0.2,0.7-0.2,1.1c0,0.4,0,0.8,0,1.1
		c0,1.3,0.3,2.4,1,3.2c0.7,0.9,1.9,1.3,3.5,1.3h9.3v1.4H10.7v-1.4h10c2.2,0,4.4-0.7,6.5-2.2c2.2-1.5,3.6-3.4,4.3-5.8l26.7-88.2
		c-1.3-2.2-2.8-4.7-4.5-7.4c-1.7-2.7-3.5-5.3-5.5-7.6c-2-2.3-4-4.3-6.1-5.8C40,17.1,38,16.3,36,16.3v-1.4h31.6
		c4.3,0,8.1,0.8,11.4,2.4c3.3,1.6,6.2,3.6,8.7,5.9c2.5,2.4,4.6,5,6.4,7.9c1.7,2.9,3.1,5.6,4.2,8.2c1.7,4.2,3.6,8.8,5.7,13.8
		c2,5,4.2,10.2,6.5,15.6c2.3,5.4,4.6,10.9,6.9,16.3c2.3,5.5,4.5,10.7,6.6,15.7c5,11.9,10.1,24,15.4,36.3H125.2z M192.4,137.1h-48.9
		c0-0.5,0-0.9,0-1.4h1.2c3.3,0,6.6-0.2,10-0.6c3.4-0.4,6.7-1.2,9.9-2.4c3.2-1.2,6.2-2.8,9.1-4.9c2.9-2.1,5.4-4.8,7.8-8.2
		c2.2-3.3,4-6.6,5.3-10.1c1.3-3.5,2.3-6.9,2.9-10.1c0.6-3.3,1-6.3,1.1-9.2c0.2-2.9,0.3-5.3,0.3-7.4h1.4V137.1z"/>
</g>
</svg>
